<svg width="110" height="31" viewBox="142 113 110 31" fill="none" xmlns="http://www.w3.org/2000/svg">
<path d="M213.21 129.317C213.208 128.384 212.835 127.344 212.11 126.886C211.078 126.235 209.736 126.636 208.985 127.558C208.469 128.191 208.015 129.092 208.02 129.944L208.06 136.765L209.018 137.174C209.282 137.287 209.571 137.596 209.613 137.826C209.662 138.098 209.565 138.622 209.333 138.809L202.333 138.79C201.926 138.674 201.88 137.583 202.247 137.38C202.79 137.081 203.348 136.922 203.936 136.76L203.94 126.714C203.334 126.655 202.714 126.543 202.228 126.244C201.984 126.093 201.986 125.373 202.176 125.128C203.208 124.783 204.358 124.556 205.432 124.337C206.313 124.157 207.128 124.012 207.996 124.275L208.012 127.102C208.858 125.075 210.561 124.079 212.616 124.107C214.067 124.127 215.521 124.527 216.367 125.786C217.092 126.864 217.372 128.201 217.371 129.526L217.365 136.786C217.88 136.941 218.447 137.103 218.906 137.39C219.306 137.641 219.245 138.449 218.911 138.802L211.841 138.812C211.602 138.412 211.513 137.683 211.869 137.383C212.225 137.083 212.737 136.955 213.229 136.794L213.213 129.317H213.21Z" fill="#4B946A"/>
<path d="M189.235 131.875C189.235 132.231 188.544 132.313 188.268 132.226C188.041 132.153 187.825 131.863 187.682 131.543L187.043 130.116L183.08 130.108L183.089 136.702C183.937 136.83 184.668 137.008 185.416 137.401C185.763 137.583 185.715 138.472 185.391 138.805H176.949C176.592 138.453 176.565 137.529 177.005 137.317C177.611 137.025 178.272 136.862 178.924 136.685V120.89C178.15 120.737 177.449 120.547 176.806 120.156C176.631 119.809 176.69 119.187 176.955 118.839L191.35 118.833C191.556 118.833 191.974 119.206 191.953 119.394C191.76 121.077 191.545 122.528 191.233 124.2C190.715 124.304 190.369 124.294 189.858 124.186C189.423 123.062 189.107 122.081 188.791 120.863L183.089 120.854L183.084 128.09L186.952 128.065L187.841 126.221C187.996 125.9 188.943 125.982 189.228 126.244L189.234 131.874L189.235 131.875Z" fill="#4B946A"/>
<path d="M249.615 134.241C248.339 138.702 243.375 139.976 239.346 138.609C235.021 137.141 233.991 131.931 235.569 128.097C237.166 124.217 242.355 123.275 246.015 124.798C249.651 126.311 250.65 130.628 249.615 134.24V134.241ZM245.201 128.404C245.043 127.801 244.7 127.146 244.228 126.739C243.321 125.957 241.742 125.852 240.775 126.569C238.975 127.905 238.979 132.636 239.772 135.099C240.239 136.551 241.452 137.354 242.978 137.165C246.01 136.789 245.964 131.314 245.201 128.405V128.404Z" fill="#4B946A"/>
<path d="M233.011 138.806L220.839 138.811C220.249 138.025 220.505 137.209 220.988 136.521L223.08 133.54L228.196 126.325L223.852 126.3L222.733 129.426L221.412 129.431C221.025 127.87 220.758 126.327 220.691 124.755C220.865 124.58 221.217 124.438 221.464 124.438H232.663C233.122 125.131 233 125.837 232.562 126.462L225.205 136.936L229.939 136.919L231.295 133.537C231.745 133.376 232.213 133.349 232.657 133.55L232.945 136.201L233.011 138.806Z" fill="#4B946A"/>
<path d="M193.194 137.446C193.733 137.114 194.343 136.946 194.96 136.757L194.984 132.684L194.943 126.709C194.341 126.669 193.737 126.602 193.197 126.268C192.958 126.12 192.976 125.368 193.176 125.133C194.013 124.844 194.951 124.597 195.818 124.457L198.219 124.074C198.527 124.024 198.988 124.362 198.986 124.723L198.983 136.785C199.53 136.945 200.11 137.09 200.567 137.385C200.95 137.632 200.876 138.436 200.569 138.805L193.282 138.796C192.973 138.514 192.872 137.644 193.194 137.446Z" fill="#4B946A"/>
<path d="M198.82 121.373C197.872 122.396 196.158 122.43 195.123 121.579C194.148 120.777 194.175 119.059 195.128 118.263C196.082 117.466 197.539 117.455 198.519 118.199C199.438 118.9 199.664 120.463 198.82 121.373Z" fill="#4B946A"/>
<path d="M164.85 128.779C166.15 128.779 167.203 126.665 167.203 124.057C167.203 121.449 166.15 119.334 164.85 119.334C163.551 119.334 162.497 121.449 162.497 124.057C162.497 126.665 163.551 128.779 164.85 128.779Z" fill="#FDFDFD"/>
<path d="M147.639 128.779C148.939 128.779 149.992 126.665 149.992 124.057C149.992 121.449 148.939 119.334 147.639 119.334C146.34 119.334 145.286 121.449 145.286 124.057C145.286 126.665 146.34 128.779 147.639 128.779Z" fill="#FDFDFD"/>
<path d="M164.893 115.001C165.017 114.99 165.175 115.047 165.231 115.19C165.489 115.843 165.569 116.507 165.551 117.242C165.882 116.773 166.007 116.266 166.084 115.718C166.105 115.565 166.294 115.509 166.409 115.53C166.543 115.555 166.677 115.697 166.677 115.864C166.683 116.509 166.522 117.11 166.4 117.753C166.828 117.351 166.962 116.674 167.35 116.862C167.554 116.961 167.573 117.149 167.485 117.347C167.248 117.877 166.957 118.371 166.635 118.853C166.393 119.217 166.365 119.552 166.517 119.952C167.007 121.235 167.308 122.548 167.391 123.924C167.448 124.863 167.313 125.74 167.109 126.651C166.906 127.378 166.621 128.039 166.258 128.724C166.756 130.054 167.097 131.423 167.163 132.864L167.161 132.866C168.004 133.368 168.424 134.297 168.3 135.309C167.923 136.224 167.065 137.931 165.257 139.305C164.381 139.97 163.523 140.374 162.841 140.626C162.123 140.874 161.404 141.122 160.685 141.37L159.782 141.57C158.502 141.852 157.329 141.982 156.162 141.958C154.994 141.982 153.822 141.852 152.542 141.57L151.638 141.37C150.92 141.122 150.2 140.874 149.482 140.626C148.801 140.374 147.942 139.97 147.067 139.305C145.256 137.929 144.398 136.222 144.021 135.307C143.898 134.295 144.317 133.366 145.161 132.864C145.226 131.423 145.568 130.054 146.065 128.724C145.702 128.039 145.417 127.378 145.214 126.651C145.01 125.74 144.876 124.863 144.932 123.924C145.016 122.548 145.317 121.235 145.806 119.952C145.959 119.552 145.929 119.217 145.687 118.853C145.366 118.372 145.075 117.877 144.839 117.347C144.751 117.149 144.768 116.961 144.972 116.862C145.361 116.673 145.495 117.351 145.924 117.753C145.801 117.11 145.641 116.509 145.646 115.864C145.647 115.697 145.781 115.555 145.915 115.53C146.03 115.509 146.219 115.565 146.24 115.718C146.317 116.266 146.441 116.773 146.772 117.242C146.754 116.507 146.834 115.843 147.092 115.19C147.148 115.047 147.306 114.99 147.43 115.001C147.531 115.011 147.709 115.1 147.688 115.248C147.42 117.05 148.099 118.626 149.121 120.077L150.044 121.389L150.645 122.28C150.933 122.708 151.118 123.17 151.273 123.68C152.836 122.983 154.48 122.687 156.162 122.738C157.844 122.687 159.487 122.983 161.05 123.68C161.206 123.17 161.391 122.708 161.678 122.28L162.279 121.389L163.203 120.077C164.224 118.626 164.903 117.05 164.635 115.248C164.614 115.1 164.793 115.011 164.893 115.001ZM150.53 129.018C149.662 128.886 148.853 129.171 148.258 129.82C147.468 130.682 147.064 131.791 146.931 132.955C146.911 133.13 146.623 133.158 146.494 133.162C145.89 133.183 145.364 133.462 145.05 133.911C144.998 133.987 144.735 134.286 144.758 134.679C144.775 134.986 144.956 135.198 145.111 135.385C145.124 135.4 145.766 136.174 146.297 136.947C146.507 137.254 146.773 137.728 146.951 138.409C147.707 138.88 151.838 141.393 156.161 141.302H156.163C160.486 141.393 164.617 138.88 165.373 138.409C165.551 137.728 165.817 137.254 166.027 136.947C166.559 136.172 167.203 135.397 167.213 135.385C167.368 135.198 167.548 134.986 167.566 134.679C167.588 134.287 167.326 133.987 167.273 133.911C166.959 133.462 166.434 133.183 165.83 133.162C165.7 133.158 165.413 133.13 165.392 132.955C165.259 131.791 164.855 130.682 164.065 129.82C163.471 129.171 162.662 128.886 161.794 129.018C160.951 129.145 160.202 129.557 159.677 130.236C159.34 130.672 159.06 131.136 158.867 131.661C158.539 132.553 158.368 133.496 158.374 134.446C158.376 134.702 158.399 134.855 158.23 135.063C157.85 135.531 157.385 135.935 156.799 136.109C156.791 136.317 156.767 136.502 156.846 136.674C156.983 136.971 157.286 137.114 157.596 137.107C157.87 137.1 158.16 136.927 158.291 136.653C158.385 136.456 158.558 136.371 158.768 136.449C158.946 136.516 158.986 136.752 158.883 136.946C158.6 137.475 158.006 137.764 157.391 137.706C157.028 137.673 156.744 137.444 156.452 137.23C156.362 137.315 156.265 137.39 156.163 137.454V137.456L156.162 137.455L156.161 137.456V137.454C156.059 137.39 155.961 137.315 155.871 137.23C155.578 137.444 155.296 137.672 154.932 137.706C154.318 137.764 153.723 137.475 153.441 136.946C153.337 136.751 153.377 136.516 153.555 136.449C153.766 136.371 153.939 136.456 154.033 136.653C154.163 136.927 154.453 137.1 154.727 137.107C155.038 137.114 155.341 136.971 155.477 136.674C155.556 136.502 155.532 136.317 155.525 136.109C154.938 135.935 154.473 135.531 154.092 135.063C153.923 134.855 153.948 134.702 153.95 134.446C153.955 133.495 153.784 132.553 153.456 131.661C153.262 131.136 152.983 130.672 152.646 130.236C152.121 129.557 151.372 129.145 150.53 129.018ZM146.808 120.045C146.665 120.074 146.588 120.286 146.53 120.42C145.612 122.576 145.323 125.229 146.312 127.394L146.549 127.913L146.55 127.914C146.974 127.166 147.473 126.484 148.092 125.879C148.256 125.72 148.335 125.515 148.343 125.287C148.407 123.601 147.925 121.791 147.128 120.319C147.068 120.209 146.933 120.021 146.808 120.045ZM165.514 120.045C165.389 120.021 165.255 120.209 165.195 120.319C164.398 121.791 163.915 123.601 163.979 125.287C163.987 125.515 164.066 125.72 164.229 125.879C164.848 126.484 165.349 127.166 165.772 127.914L165.773 127.913L166.01 127.394C166.999 125.229 166.71 122.576 165.793 120.42C165.735 120.286 165.658 120.074 165.514 120.045Z" fill="#4B946A"/>
<path d="M148.257 129.818C148.851 129.169 149.66 128.885 150.528 129.017C151.371 129.145 152.12 129.556 152.645 130.235C152.982 130.671 153.26 131.134 153.454 131.66C153.782 132.55 153.954 133.494 153.948 134.444C153.947 134.7 153.922 134.853 154.091 135.061C154.471 135.529 154.937 135.933 155.524 136.107C155.531 136.314 155.555 136.5 155.476 136.672C155.339 136.969 155.036 137.112 154.726 137.105C154.452 137.099 154.163 136.926 154.031 136.652C153.938 136.455 153.764 136.37 153.554 136.448C153.377 136.514 153.336 136.75 153.44 136.944C153.722 137.473 154.316 137.763 154.931 137.705C155.294 137.672 155.578 137.443 155.869 137.229C155.961 137.315 156.058 137.39 156.161 137.454V141.248C155.315 141.201 154.469 141.141 153.625 141.068C153.436 141.051 153.246 141.034 153.057 141.016C152.373 140.88 151.689 140.695 151.002 140.463C149.556 139.976 148.204 139.309 146.949 138.407C146.64 138.169 146.287 137.858 145.941 137.457C145.362 136.79 145.013 136.125 144.801 135.624C144.743 135.296 144.737 134.998 144.756 134.676V134.677C144.872 133.794 145.594 133.192 146.492 133.162C146.622 133.157 146.91 133.128 146.93 132.954C147.063 131.79 147.468 130.68 148.257 129.818ZM161.796 129.017C162.664 128.885 163.473 129.169 164.068 129.818C164.857 130.68 165.262 131.79 165.395 132.954C165.414 133.128 165.703 133.157 165.832 133.162C166.73 133.192 167.453 133.794 167.569 134.677V134.676C167.587 134.998 167.581 135.296 167.524 135.624C167.312 136.125 166.962 136.79 166.384 137.457C166.037 137.858 165.685 138.169 165.375 138.407C164.12 139.309 162.769 139.976 161.322 140.463C160.636 140.695 159.952 140.88 159.268 141.016C159.078 141.034 158.889 141.051 158.699 141.068C157.855 141.141 157.009 141.201 156.163 141.248V137.454C156.266 137.39 156.363 137.315 156.454 137.229C156.746 137.443 157.03 137.672 157.394 137.705C158.008 137.763 158.603 137.473 158.885 136.944C158.989 136.75 158.948 136.514 158.771 136.448C158.56 136.37 158.386 136.455 158.293 136.652C158.162 136.926 157.873 137.099 157.599 137.105C157.288 137.112 156.985 136.969 156.849 136.672C156.769 136.5 156.794 136.314 156.801 136.107C157.388 135.933 157.852 135.529 158.233 135.061C158.402 134.853 158.378 134.701 158.376 134.444C158.371 133.494 158.541 132.55 158.869 131.66C159.064 131.134 159.343 130.671 159.68 130.235C160.205 129.556 160.953 129.145 161.796 129.017Z" fill="#FDFDFD"/>
<path d="M149.648 134.052C149.728 133.88 150.173 133.224 151.079 133.224C151.985 133.224 152.391 133.88 152.51 134.052" stroke="#4B946A" stroke-width="0.593036" stroke-linecap="round"/>
<path d="M159.814 134.052C159.894 133.88 160.339 133.224 161.245 133.224C162.151 133.224 162.557 133.88 162.676 134.052" stroke="#4B946A" stroke-width="0.593036" stroke-linecap="round"/>
<g clip-path="url(#clip1_148_832)">
<path d="M213.21 129.317C213.208 128.384 212.835 127.344 212.11 126.886C211.078 126.235 209.736 126.636 208.985 127.558C208.469 128.191 208.015 129.092 208.02 129.944L208.06 136.765L209.018 137.174C209.282 137.287 209.571 137.596 209.613 137.826C209.662 138.098 209.565 138.622 209.333 138.809L202.333 138.79C201.926 138.674 201.88 137.583 202.247 137.38C202.79 137.081 203.348 136.922 203.936 136.76L203.94 126.714C203.334 126.655 202.714 126.543 202.228 126.244C201.984 126.093 201.986 125.373 202.176 125.128C203.208 124.783 204.358 124.556 205.432 124.337C206.313 124.157 207.128 124.012 207.996 124.275L208.012 127.102C208.858 125.075 210.561 124.079 212.616 124.107C214.067 124.127 215.521 124.527 216.367 125.786C217.092 126.864 217.372 128.201 217.371 129.526L217.365 136.786C217.88 136.941 218.447 137.103 218.906 137.39C219.306 137.641 219.245 138.449 218.911 138.802L211.841 138.812C211.602 138.412 211.513 137.683 211.869 137.383C212.225 137.083 212.737 136.955 213.229 136.794L213.213 129.317H213.21Z" fill="#4B946A"/>
<path d="M189.235 131.875C189.235 132.231 188.544 132.313 188.268 132.226C188.041 132.153 187.825 131.863 187.682 131.543L187.043 130.116L183.08 130.108L183.089 136.702C183.937 136.83 184.668 137.008 185.416 137.401C185.763 137.583 185.715 138.472 185.391 138.805H176.949C176.592 138.453 176.565 137.529 177.005 137.317C177.611 137.025 178.272 136.862 178.924 136.685V120.89C178.15 120.737 177.449 120.547 176.806 120.156C176.631 119.809 176.69 119.187 176.955 118.839L191.35 118.833C191.556 118.833 191.974 119.206 191.953 119.394C191.76 121.077 191.545 122.528 191.233 124.2C190.715 124.304 190.369 124.294 189.858 124.186C189.423 123.062 189.107 122.081 188.791 120.863L183.089 120.854L183.084 128.09L186.952 128.065L187.841 126.221C187.996 125.9 188.943 125.982 189.228 126.244L189.234 131.874L189.235 131.875Z" fill="#4B946A"/>
<path d="M249.615 134.241C248.339 138.702 243.375 139.976 239.346 138.609C235.021 137.141 233.991 131.931 235.569 128.097C237.166 124.217 242.355 123.275 246.015 124.798C249.651 126.311 250.65 130.628 249.615 134.24V134.241ZM245.201 128.404C245.043 127.801 244.7 127.146 244.228 126.739C243.321 125.957 241.742 125.852 240.775 126.569C238.975 127.905 238.979 132.636 239.772 135.099C240.239 136.551 241.452 137.354 242.978 137.165C246.01 136.789 245.964 131.314 245.201 128.405V128.404Z" fill="#4B946A"/>
<path d="M233.011 138.806L220.839 138.811C220.249 138.025 220.505 137.209 220.988 136.521L223.08 133.54L228.196 126.325L223.852 126.3L222.733 129.426L221.412 129.431C221.025 127.87 220.758 126.327 220.691 124.755C220.865 124.58 221.217 124.438 221.464 124.438H232.663C233.122 125.131 233 125.837 232.562 126.462L225.205 136.936L229.939 136.919L231.295 133.537C231.745 133.376 232.213 133.349 232.657 133.55L232.945 136.201L233.011 138.806Z" fill="#4B946A"/>
<path d="M193.194 137.446C193.733 137.114 194.343 136.946 194.96 136.757L194.984 132.684L194.943 126.709C194.341 126.669 193.737 126.602 193.197 126.268C192.958 126.12 192.976 125.368 193.176 125.133C194.013 124.844 194.951 124.597 195.818 124.457L198.219 124.074C198.527 124.024 198.988 124.362 198.986 124.723L198.983 136.785C199.53 136.945 200.11 137.09 200.567 137.385C200.95 137.632 200.876 138.436 200.569 138.805L193.282 138.796C192.973 138.514 192.872 137.644 193.194 137.446Z" fill="#4B946A"/>
<path d="M198.82 121.373C197.872 122.396 196.158 122.43 195.123 121.579C194.148 120.777 194.175 119.059 195.128 118.263C196.082 117.466 197.539 117.455 198.519 118.199C199.438 118.9 199.664 120.463 198.82 121.373Z" fill="#4B946A"/>
</g>
<g clip-path="url(#clip2_148_832)">
<path d="M164.85 128.779C166.15 128.779 167.203 126.665 167.203 124.057C167.203 121.449 166.15 119.334 164.85 119.334C163.551 119.334 162.497 121.449 162.497 124.057C162.497 126.665 163.551 128.779 164.85 128.779Z" fill="#FDFDFD"/>
<path d="M147.639 128.779C148.939 128.779 149.992 126.665 149.992 124.057C149.992 121.449 148.939 119.334 147.639 119.334C146.34 119.334 145.286 121.449 145.286 124.057C145.286 126.665 146.34 128.779 147.639 128.779Z" fill="#FDFDFD"/>
<path d="M164.893 115.001C165.017 114.99 165.175 115.047 165.231 115.19C165.489 115.843 165.569 116.507 165.551 117.242C165.882 116.773 166.007 116.266 166.084 115.718C166.105 115.565 166.294 115.509 166.409 115.53C166.543 115.555 166.677 115.697 166.677 115.864C166.683 116.509 166.522 117.11 166.4 117.753C166.828 117.351 166.962 116.674 167.35 116.862C167.554 116.961 167.573 117.149 167.485 117.347C167.248 117.877 166.957 118.371 166.635 118.853C166.393 119.217 166.365 119.552 166.517 119.952C167.007 121.235 167.308 122.548 167.391 123.924C167.448 124.863 167.313 125.74 167.109 126.651C166.906 127.378 166.621 128.039 166.258 128.724C166.756 130.054 167.097 131.423 167.163 132.864L167.161 132.866C168.004 133.368 168.424 134.297 168.3 135.309C167.923 136.224 167.065 137.931 165.257 139.305C164.381 139.97 163.523 140.374 162.841 140.626C162.123 140.874 161.404 141.122 160.685 141.37L159.782 141.57C158.502 141.852 157.329 141.982 156.162 141.958C154.994 141.982 153.822 141.852 152.542 141.57L151.638 141.37C150.92 141.122 150.2 140.874 149.482 140.626C148.801 140.374 147.942 139.97 147.067 139.305C145.256 137.929 144.398 136.222 144.021 135.307C143.898 134.295 144.317 133.366 145.161 132.864C145.226 131.423 145.568 130.054 146.065 128.724C145.702 128.039 145.417 127.378 145.214 126.651C145.01 125.74 144.876 124.863 144.932 123.924C145.016 122.548 145.317 121.235 145.806 119.952C145.959 119.552 145.929 119.217 145.687 118.853C145.366 118.372 145.075 117.877 144.839 117.347C144.751 117.149 144.768 116.961 144.972 116.862C145.361 116.673 145.495 117.351 145.924 117.753C145.801 117.11 145.641 116.509 145.646 115.864C145.647 115.697 145.781 115.555 145.915 115.53C146.03 115.509 146.219 115.565 146.24 115.718C146.317 116.266 146.441 116.773 146.772 117.242C146.754 116.507 146.834 115.843 147.092 115.19C147.148 115.047 147.306 114.99 147.43 115.001C147.531 115.011 147.709 115.1 147.688 115.248C147.42 117.05 148.099 118.626 149.121 120.077L150.044 121.389L150.645 122.28C150.933 122.708 151.118 123.17 151.273 123.68C152.836 122.983 154.48 122.687 156.162 122.738C157.844 122.687 159.487 122.983 161.05 123.68C161.206 123.17 161.391 122.708 161.678 122.28L162.279 121.389L163.203 120.077C164.224 118.626 164.903 117.05 164.635 115.248C164.614 115.1 164.793 115.011 164.893 115.001ZM150.53 129.018C149.662 128.886 148.853 129.171 148.258 129.82C147.468 130.682 147.064 131.791 146.931 132.955C146.911 133.13 146.623 133.158 146.494 133.162C145.89 133.183 145.364 133.462 145.05 133.911C144.998 133.987 144.735 134.286 144.758 134.679C144.775 134.986 144.956 135.198 145.111 135.385C145.124 135.4 145.766 136.174 146.297 136.947C146.507 137.254 146.773 137.728 146.951 138.409C147.707 138.88 151.838 141.393 156.161 141.302H156.163C160.486 141.393 164.617 138.88 165.373 138.409C165.551 137.728 165.817 137.254 166.027 136.947C166.559 136.172 167.203 135.397 167.213 135.385C167.368 135.198 167.548 134.986 167.566 134.679C167.588 134.287 167.326 133.987 167.273 133.911C166.959 133.462 166.434 133.183 165.83 133.162C165.7 133.158 165.413 133.13 165.392 132.955C165.259 131.791 164.855 130.682 164.065 129.82C163.471 129.171 162.662 128.886 161.794 129.018C160.951 129.145 160.202 129.557 159.677 130.236C159.34 130.672 159.06 131.136 158.867 131.661C158.539 132.553 158.368 133.496 158.374 134.446C158.376 134.702 158.399 134.855 158.23 135.063C157.85 135.531 157.385 135.935 156.799 136.109C156.791 136.317 156.767 136.502 156.846 136.674C156.983 136.971 157.286 137.114 157.596 137.107C157.87 137.1 158.16 136.927 158.291 136.653C158.385 136.456 158.558 136.371 158.768 136.449C158.946 136.516 158.986 136.752 158.883 136.946C158.6 137.475 158.006 137.764 157.391 137.706C157.028 137.673 156.744 137.444 156.452 137.23C156.362 137.315 156.265 137.39 156.163 137.454V137.456L156.162 137.455L156.161 137.456V137.454C156.059 137.39 155.961 137.315 155.871 137.23C155.578 137.444 155.296 137.672 154.932 137.706C154.318 137.764 153.723 137.475 153.441 136.946C153.337 136.751 153.377 136.516 153.555 136.449C153.766 136.371 153.939 136.456 154.033 136.653C154.163 136.927 154.453 137.1 154.727 137.107C155.038 137.114 155.341 136.971 155.477 136.674C155.556 136.502 155.532 136.317 155.525 136.109C154.938 135.935 154.473 135.531 154.092 135.063C153.923 134.855 153.948 134.702 153.95 134.446C153.955 133.495 153.784 132.553 153.456 131.661C153.262 131.136 152.983 130.672 152.646 130.236C152.121 129.557 151.372 129.145 150.53 129.018ZM146.808 120.045C146.665 120.074 146.588 120.286 146.53 120.42C145.612 122.576 145.323 125.229 146.312 127.394L146.549 127.913L146.55 127.914C146.974 127.166 147.473 126.484 148.092 125.879C148.256 125.72 148.335 125.515 148.343 125.287C148.407 123.601 147.925 121.791 147.128 120.319C147.068 120.209 146.933 120.021 146.808 120.045ZM165.514 120.045C165.389 120.021 165.255 120.209 165.195 120.319C164.398 121.791 163.915 123.601 163.979 125.287C163.987 125.515 164.066 125.72 164.229 125.879C164.848 126.484 165.349 127.166 165.772 127.914L165.773 127.913L166.01 127.394C166.999 125.229 166.71 122.576 165.793 120.42C165.735 120.286 165.658 120.074 165.514 120.045Z" fill="#4B946A"/>
<path d="M148.257 129.818C148.851 129.169 149.66 128.885 150.528 129.017C151.371 129.145 152.12 129.556 152.645 130.235C152.982 130.671 153.26 131.134 153.454 131.66C153.782 132.55 153.954 133.494 153.948 134.444C153.947 134.7 153.922 134.853 154.091 135.061C154.471 135.529 154.937 135.933 155.524 136.107C155.531 136.314 155.555 136.5 155.476 136.672C155.339 136.969 155.036 137.112 154.726 137.105C154.452 137.099 154.163 136.926 154.031 136.652C153.938 136.455 153.764 136.37 153.554 136.448C153.377 136.514 153.336 136.75 153.44 136.944C153.722 137.473 154.316 137.763 154.931 137.705C155.294 137.672 155.578 137.443 155.869 137.229C155.961 137.315 156.058 137.39 156.161 137.454V141.248C155.315 141.201 154.469 141.141 153.625 141.068C153.436 141.051 153.246 141.034 153.057 141.016C152.373 140.88 151.689 140.695 151.002 140.463C149.556 139.976 148.204 139.309 146.949 138.407C146.64 138.169 146.287 137.858 145.941 137.457C145.362 136.79 145.013 136.125 144.801 135.624C144.743 135.296 144.737 134.998 144.756 134.676V134.677C144.872 133.794 145.594 133.192 146.492 133.162C146.622 133.157 146.91 133.128 146.93 132.954C147.063 131.79 147.468 130.68 148.257 129.818ZM161.796 129.017C162.664 128.885 163.473 129.169 164.068 129.818C164.857 130.68 165.262 131.79 165.395 132.954C165.414 133.128 165.703 133.157 165.832 133.162C166.73 133.192 167.453 133.794 167.569 134.677V134.676C167.587 134.998 167.581 135.296 167.524 135.624C167.312 136.125 166.962 136.79 166.384 137.457C166.037 137.858 165.685 138.169 165.375 138.407C164.12 139.309 162.769 139.976 161.322 140.463C160.636 140.695 159.952 140.88 159.268 141.016C159.078 141.034 158.889 141.051 158.699 141.068C157.855 141.141 157.009 141.201 156.163 141.248V137.454C156.266 137.39 156.363 137.315 156.454 137.229C156.746 137.443 157.03 137.672 157.394 137.705C158.008 137.763 158.603 137.473 158.885 136.944C158.989 136.75 158.948 136.514 158.771 136.448C158.56 136.37 158.386 136.455 158.293 136.652C158.162 136.926 157.873 137.099 157.599 137.105C157.288 137.112 156.985 136.969 156.849 136.672C156.769 136.5 156.794 136.314 156.801 136.107C157.388 135.933 157.852 135.529 158.233 135.061C158.402 134.853 158.378 134.701 158.376 134.444C158.371 133.494 158.541 132.55 158.869 131.66C159.064 131.134 159.343 130.671 159.68 130.235C160.205 129.556 160.953 129.145 161.796 129.017Z" fill="#FDFDFD"/>
<path d="M149.648 134.052C149.728 133.88 150.173 133.224 151.079 133.224C151.985 133.224 152.391 133.88 152.51 134.052" stroke="#4B946A" stroke-width="0.593036" stroke-linecap="round"/>
<path d="M159.814 134.052C159.894 133.88 160.339 133.224 161.245 133.224C162.151 133.224 162.557 133.88 162.676 134.052" stroke="#4B946A" stroke-width="0.593036" stroke-linecap="round"/>
</g>
<defs>
<clipPath id="clip1_148_832">
<rect width="73.3218" height="21.4764" fill="white" transform="translate(176.678 117.655)"/>
</clipPath>
<clipPath id="clip2_148_832">
<rect width="24.3238" height="26.9595" fill="white" transform="translate(144 115)"/>
</clipPath>
</defs>
</svg>
