<svg width="393" height="852" viewBox="0 0 393 852" fill="none" xmlns="http://www.w3.org/2000/svg">
<defs>
<clipPath id="clip5_150_1063">
<rect width="51" height="48" fill="white" transform="translate(10 440)"/>
</clipPath>
</defs>
<g clip-path="url(#clip5_150_1063)">
<path d="M22.9962 487.442C22.4481 487.749 21.6198 487.858 20.9391 487.941C15.9093 488.546 12.5962 484.361 11.4999 479.493C10.1627 473.561 9.62654 467.486 10.2741 461.45C10.8223 456.314 14.0871 452.686 18.8429 450.868L20.3548 450.29L30.9325 446.644C31.553 442.004 35.7154 439.867 40.3747 440.006C43.2511 440.103 45.7238 441.553 47.0008 444.044C49.0218 445.272 50.5187 446.836 51.8951 448.731C55.3528 453.823 58.2863 459.148 60.235 464.968C60.9006 466.955 61.2199 468.873 60.8344 470.883C60.226 474.071 57.5574 476.267 54.2293 476.205C49.3381 476.114 44.6757 472.725 41.0885 469.552C37.8508 470.526 34.9293 471.409 31.9114 472.716C30.1042 478.437 28.4477 484.39 22.9962 487.448V487.442ZM43.477 442.828C41.0765 440.295 34.4925 441.47 33.1583 445.015C36.5286 443.241 39.5465 442.004 43.477 442.828ZM29.9808 472.982C30.3241 472.055 30.7729 471.208 31.6343 470.907L40.2543 467.876C41.1187 467.572 41.6969 467.882 42.3294 468.419C46.3864 471.866 53.6571 476.751 57.5755 473.31C61.0301 470.275 58.2592 463.785 56.0726 459.381C54.154 455.52 52.1963 451.798 49.4615 448.462C47.1514 445.647 43.7781 443.988 40.0645 444.304C37.2906 444.537 34.4564 445.691 32.6674 447.66C31.9596 448.439 31.7156 448.247 30.7879 448.572L18.635 452.837C14.5028 454.286 12.2167 457.937 11.8373 462.205C11.3042 468.224 11.9577 474.236 13.4998 480.104C14.1022 482.404 15.5147 484.44 17.5297 485.58C21.5837 487.873 26.0322 483.626 27.3785 479.995L29.9747 472.982H29.9808Z" fill="#555A52"/>
<path d="M29.9806 472.982L27.3844 479.995C26.0411 483.626 21.5896 487.873 17.5356 485.58C15.5207 484.44 14.1081 482.404 13.5057 480.104C11.9667 474.233 11.3131 468.221 11.8432 462.205C12.2196 457.934 14.5087 454.286 18.641 452.837L30.7938 448.572C31.7215 448.247 31.9655 448.439 32.6733 447.66C34.4593 445.691 37.2965 444.537 40.0704 444.304C43.784 443.991 47.1573 445.647 49.4674 448.462C52.2052 451.801 54.163 455.52 56.0785 459.381C58.2651 463.785 61.036 470.275 57.5814 473.31C53.66 476.751 46.3923 471.869 42.3353 468.419C41.7028 467.881 41.1216 467.572 40.2602 467.876L31.6402 470.907C30.7788 471.211 30.33 472.055 29.9867 472.982H29.9806ZM43.8112 451.801C43.8112 450.396 42.6486 449.256 41.2149 449.256C39.7813 449.256 38.6187 450.396 38.6187 451.801C38.6187 453.206 39.7813 454.345 41.2149 454.345C42.6486 454.345 43.8112 453.206 43.8112 451.801ZM49.7536 454.658C49.7536 453.28 48.6151 452.164 47.2085 452.164C45.802 452.164 44.6635 453.28 44.6635 454.658C44.6635 456.036 45.802 457.152 47.2085 457.152C48.6151 457.152 49.7536 456.036 49.7536 454.658ZM41.0131 457.769C41.0131 456.382 39.8656 455.257 38.45 455.257C37.0344 455.257 35.8869 456.382 35.8869 457.769C35.8869 459.156 37.0344 460.281 38.45 460.281C39.8656 460.281 41.0131 459.156 41.0131 457.769ZM24.9418 471.049C26.1315 470.665 26.6465 470.027 26.3363 468.971L25.5201 466.19L28.0199 465.293C28.5831 465.092 29.0168 464.632 29.0711 464.192C29.1614 463.475 28.4084 460.555 27.3904 460.381C26.1827 460.175 25.0171 461.034 23.8575 461.205C23.3124 460.039 23.4599 458.315 22.2733 457.598C21.3336 457.034 18.7915 457.92 18.3458 458.905C17.7946 460.127 18.7915 461.541 19.0867 462.725L16.0809 463.917C14.837 464.85 16.2254 468.33 17.2254 468.552C18.3006 468.791 19.4632 468.109 20.5565 467.793L21.8094 471.108C22.5413 472.04 23.981 471.359 24.9418 471.049ZM47.0579 460.635C47.0579 459.218 45.8863 458.073 44.4436 458.073C43.001 458.073 41.8293 459.221 41.8293 460.635C41.8293 462.049 43.001 463.197 44.4436 463.197C45.8863 463.197 47.0579 462.049 47.0579 460.635Z" fill="#FCF8EA"/>
<path d="M43.4769 442.828C39.5464 442.004 36.5285 443.241 33.1582 445.015C34.4925 441.467 41.0764 440.295 43.4769 442.828Z" fill="#DF9548"/>
<path d="M24.9419 471.049C23.9811 471.358 22.5414 472.037 21.8095 471.108L20.5566 467.793C19.4633 468.109 18.3007 468.791 17.2255 468.551C16.2255 468.33 14.837 464.85 16.0809 463.917L19.0868 462.725C18.7916 461.541 17.7947 460.127 18.3459 458.905C18.7916 457.92 21.3336 457.034 22.2733 457.598C23.463 458.315 23.3155 460.039 23.8576 461.205C25.0141 461.034 26.1797 460.175 27.3905 460.381C28.4115 460.555 29.1645 463.475 29.0711 464.192C29.0139 464.632 28.5832 465.092 28.02 465.293L25.5201 466.19L26.3364 468.971C26.6466 470.027 26.1285 470.665 24.9419 471.049ZM25.0352 469.357L23.8455 465.399L27.3815 463.758C27.9718 463.483 27.2791 461.957 26.8875 461.639L22.945 462.737L21.6529 458.823C20.8066 458.814 19.9572 459.044 19.3789 459.649C19.8247 461.019 20.3819 462.12 20.4933 463.501C19.5446 464.245 18.4121 464.463 17.1321 464.788C16.9182 465.597 17.2526 466.509 17.7616 467.247C19.1259 466.766 20.2283 466.14 21.6168 466.184C21.8878 467.657 22.1318 468.962 22.7824 470.142C23.6919 469.998 24.3877 469.847 25.0292 469.354L25.0352 469.357Z" fill="#555A52"/>
<path d="M47.0582 460.635C47.0582 462.052 45.8866 463.197 44.4439 463.197C43.0012 463.197 41.8296 462.049 41.8296 460.635C41.8296 459.221 43.0012 458.073 44.4439 458.073C45.8866 458.073 47.0582 459.221 47.0582 460.635ZM45.7902 460.611C45.7902 459.879 45.1848 459.283 44.4349 459.283C43.6849 459.283 43.0795 459.876 43.0795 460.611C43.0795 461.346 43.6849 461.94 44.4349 461.94C45.1848 461.94 45.7902 461.346 45.7902 460.611Z" fill="#9A5F2B"/>
<path d="M43.8111 451.801C43.8111 453.206 42.6485 454.345 41.2149 454.345C39.7812 454.345 38.6187 453.206 38.6187 451.801C38.6187 450.396 39.7812 449.256 41.2149 449.256C42.6485 449.256 43.8111 450.396 43.8111 451.801ZM42.504 451.754C42.504 451.022 41.8986 450.428 41.1516 450.428C40.4047 450.428 39.7993 451.022 39.7993 451.754C39.7993 452.486 40.4047 453.079 41.1516 453.079C41.8986 453.079 42.504 452.486 42.504 451.754Z" fill="#9A5F2B"/>
<path d="M41.0134 457.769C41.0134 459.156 39.8659 460.281 38.4503 460.281C37.0347 460.281 35.8872 459.156 35.8872 457.769C35.8872 456.382 37.0347 455.257 38.4503 455.257C39.8659 455.257 41.0134 456.382 41.0134 457.769ZM39.7123 457.71C39.7123 456.969 39.1009 456.37 38.3449 456.37C37.5889 456.37 36.9775 456.969 36.9775 457.71C36.9775 458.451 37.5889 459.05 38.3449 459.05C39.1009 459.05 39.7123 458.451 39.7123 457.71Z" fill="#9A5F2B"/>
<path d="M49.7536 454.658C49.7536 456.036 48.6151 457.152 47.2086 457.152C45.8021 457.152 44.6636 456.036 44.6636 454.658C44.6636 453.28 45.8021 452.164 47.2086 452.164C48.6151 452.164 49.7536 453.28 49.7536 454.658ZM48.4856 454.646C48.4856 453.944 47.9043 453.374 47.1875 453.374C46.4707 453.374 45.8894 453.944 45.8894 454.646C45.8894 455.349 46.4707 455.918 47.1875 455.918C47.9043 455.918 48.4856 455.349 48.4856 454.646Z" fill="#9A5F2B"/>
<path d="M25.0353 469.357C24.3937 469.85 23.701 470.001 22.7884 470.145C22.1378 468.965 21.8939 467.66 21.6228 466.187C20.2343 466.146 19.132 466.769 17.7676 467.25C17.2586 466.512 16.9213 465.6 17.1381 464.791C18.4182 464.463 19.5506 464.248 20.4994 463.504C20.3879 462.123 19.8307 461.022 19.385 459.652C19.9633 459.044 20.8126 458.814 21.6589 458.826L22.951 462.74L26.8936 461.642C27.2851 461.957 27.9748 463.486 27.3875 463.761L23.8516 465.402L25.0413 469.36L25.0353 469.357Z" fill="#9A5F2B"/>
<path d="M44.4349 461.94C45.1835 461.94 45.7903 461.345 45.7903 460.611C45.7903 459.878 45.1835 459.283 44.4349 459.283C43.6864 459.283 43.0796 459.878 43.0796 460.611C43.0796 461.345 43.6864 461.94 44.4349 461.94Z" fill="#DF9548"/>
<path d="M41.1516 453.079C41.8985 453.079 42.504 452.485 42.504 451.754C42.504 451.022 41.8985 450.428 41.1516 450.428C40.4048 450.428 39.7993 451.022 39.7993 451.754C39.7993 452.485 40.4048 453.079 41.1516 453.079Z" fill="#DF9548"/>
<path d="M38.3449 459.05C39.1001 459.05 39.7123 458.45 39.7123 457.71C39.7123 456.97 39.1001 456.37 38.3449 456.37C37.5897 456.37 36.9775 456.97 36.9775 457.71C36.9775 458.45 37.5897 459.05 38.3449 459.05Z" fill="#DF9548"/>
<path d="M47.1878 455.918C47.9047 455.918 48.4859 455.349 48.4859 454.646C48.4859 453.944 47.9047 453.374 47.1878 453.374C46.4708 453.374 45.8896 453.944 45.8896 454.646C45.8896 455.349 46.4708 455.918 47.1878 455.918Z" fill="#DF9548"/>
</g>
</svg>
